<svg xmlns="http://www.w3.org/2000/svg" width="82.464" height="82.48" viewBox="0 0 82.464 82.48">
  <g id="add" transform="translate(-0.089 0.001)">
    <path id="Path_168" data-name="Path 168" d="M60.553,38.505a21.869,21.869,0,0,0-13.742,4.851V35.506a4.088,4.088,0,0,0,5.5-3.872V23.389a5.5,5.5,0,0,0-5.5-5.5H33.963a8.212,8.212,0,0,0,.469-2.5,8.245,8.245,0,1,0-4.1-7.374,8.178,8.178,0,0,0-8.27,0,8.259,8.259,0,1,0-4.1,7.374,8.231,8.231,0,0,0,.469,2.5H5.586a5.5,5.5,0,0,0-5.5,5.5v8.245a4.014,4.014,0,0,0,1.2,2.9,4.025,4.025,0,0,0,4.3.973V50.186a4.8,4.8,0,0,0,8.245,3.356,4.692,4.692,0,0,0,4.122,1.4v.744A4.8,4.8,0,0,0,26.2,59.038a4.8,4.8,0,0,0,8.245-3.356v-.744a4.735,4.735,0,0,0,.687.057,4.839,4.839,0,0,0,3.4-1.406c.014-.014.023-.031.037-.045a4.819,4.819,0,0,0,.9.727A21.987,21.987,0,1,0,60.553,38.505ZM46.812,20.641a2.748,2.748,0,0,1,2.748,2.748v8.245a1.374,1.374,0,0,1-1.374,1.374,1.341,1.341,0,0,1-.979-.42,1.325,1.325,0,0,1-.394-.954V24.763a1.374,1.374,0,0,0-2.748,0V35.757H39.941V28.886a5.5,5.5,0,0,0-5.5-5.5H27.573c0-.044.008-.082.011-.125a8.235,8.235,0,0,0,4.744-2.623ZM34.444,34.382V30.259a1.374,1.374,0,0,0-2.748,0V41.253H20.7V30.259a1.374,1.374,0,0,0-2.749,0v6.871a1.374,1.374,0,1,1-2.748,0V28.886a2.748,2.748,0,0,1,2.748-2.748H34.444a2.748,2.748,0,0,1,2.748,2.748v8.245a1.374,1.374,0,1,1-2.748,0ZM38.566,2.776a5.5,5.5,0,1,1-5.5,5.5A5.5,5.5,0,0,1,38.566,2.776ZM26.2,9.646a5.5,5.5,0,1,1-5.5,5.5A5.5,5.5,0,0,1,26.2,9.646ZM13.831,13.769a5.5,5.5,0,1,1,3.887-1.61,5.5,5.5,0,0,1-3.887,1.61ZM4.211,33.008a1.341,1.341,0,0,1-.979-.42,1.322,1.322,0,0,1-.394-.954V23.389a2.748,2.748,0,0,1,2.748-2.748H20.07a8.234,8.234,0,0,0,4.744,2.623c0,.043.011.081.011.125H17.953a5.5,5.5,0,0,0-5.5,5.5v6.871H8.334V24.763a1.374,1.374,0,0,0-2.748,0v6.871a1.374,1.374,0,0,1-1.374,1.374ZM17.266,52.247A2.061,2.061,0,0,1,15.2,50.185V44a1.374,1.374,0,1,0-2.748,0v6.184a2.061,2.061,0,1,1-4.122,0V38.505h4.375A4.05,4.05,0,0,0,17.953,41V52.123a2.078,2.078,0,0,1-.687.124Zm12.368,5.5a2.061,2.061,0,0,1-2.061-2.061V49.5a1.374,1.374,0,1,0-2.748,0v6.184a2.061,2.061,0,1,1-4.122,0V44H31.7v11.68a2.061,2.061,0,0,1-2.061,2.061Zm10.306-7.558V44a1.374,1.374,0,1,0-2.748,0v6.184a2.073,2.073,0,0,1-.6,1.461,2.131,2.131,0,0,1-2.146.455V41a4.05,4.05,0,0,0,5.244-2.5h4.376V46A22.011,22.011,0,0,0,40.49,51.56a2.045,2.045,0,0,1-.55-1.374ZM60.553,79.731A19.239,19.239,0,1,1,79.792,60.492,19.238,19.238,0,0,1,60.553,79.731Zm0,0" transform="translate(0 0)" fill="#00db98"/>
    <path id="Path_169" data-name="Path 169" d="M312.21,298.554h-2.748v-2.748a5.5,5.5,0,0,0-10.993,0v2.748h-2.748a5.5,5.5,0,0,0,0,10.993h2.748V312.3a5.5,5.5,0,0,0,10.993,0v-2.748h2.748a5.5,5.5,0,1,0,0-10.993Zm0,8.245h-3.435a2.061,2.061,0,0,0-2.061,2.061V312.3a2.748,2.748,0,1,1-5.5,0V308.86a2.061,2.061,0,0,0-2.061-2.061h-3.435a2.748,2.748,0,0,1,0-5.5h3.435a2.061,2.061,0,0,0,2.061-2.061v-3.435a2.748,2.748,0,1,1,5.5,0v3.435a2.061,2.061,0,0,0,2.061,2.061h3.435a2.748,2.748,0,1,1,0,5.5Zm0,0" transform="translate(-243.411 -243.558)" fill="#00db98"/>
  </g>
</svg>
