<svg id="building" xmlns="http://www.w3.org/2000/svg" width="74.722" height="74.722" viewBox="0 0 74.722 74.722">
  <g id="Group_570" data-name="Group 570">
    <path id="Path_164" data-name="Path 164" d="M68.5,72.231V65.783a6.127,6.127,0,0,0,3.736-6.005c0-3.433-2.234-6.227-4.981-6.227s-4.981,2.793-4.981,6.227A6.127,6.127,0,0,0,66,65.783v6.449H59.778V33.625a1.246,1.246,0,0,0-.689-1.115l-9.274-4.636v-6.7a1.245,1.245,0,0,0-.9-1.2L32.38,15.25v-14A1.245,1.245,0,0,0,31.134,0H6.227A1.245,1.245,0,0,0,4.981,1.245V72.231H0v2.491H74.722V72.231Zm-38.606,0H7.472V69.74H18.68V67.25H7.472V62.268H18.68V59.778H7.472V54.8H18.68V52.305H7.472V47.324H18.68V44.833H7.472V39.852H18.68V37.361H7.472V32.38H18.68V29.889H7.472V24.907H18.68V22.417H7.472V17.435H18.68V14.944H7.472V9.963H18.68V7.472H7.472V2.491H29.889Zm17.435,0H32.38V69.74H41.1V67.25H32.38V62.268H41.1V59.778H32.38V54.8H41.1V52.305H32.38V47.324H41.1V44.833H32.38V39.852H41.1V37.361H32.38V32.38H41.1V29.889H32.38V24.907H41.1V22.417H32.38V17.841L47.324,22.11Zm9.963,0H49.815V69.74h3.736V67.25H49.815V62.268h3.736V59.778H49.815V54.8h3.736V52.305H49.815V47.324h3.736V44.833H49.815V39.852h3.736V37.361H49.815v-6.7l7.472,3.736ZM66,62.978a4.351,4.351,0,0,1-1.245-3.2c0-2.025,1.141-3.736,2.491-3.736s2.491,1.711,2.491,3.736a4.359,4.359,0,0,1-1.245,3.2V61.023H66Z" fill="#00db98"/>
  </g>
</svg>
