<svg xmlns="http://www.w3.org/2000/svg" width="82.015" height="81.786" viewBox="0 0 82.015 81.786">
  <g id="electricity" transform="translate(-1 -0.705)">
    <g id="Group_590" data-name="Group 590" transform="translate(1 0.705)">
      <g id="Group_589" data-name="Group 589" transform="translate(0 0)">
        <path id="Path_170" data-name="Path 170" d="M51.155,63.548a4.089,4.089,0,1,0-4.089,4.089A4.089,4.089,0,0,0,51.155,63.548Zm-4.089,1.363a1.363,1.363,0,1,1,1.363-1.363A1.363,1.363,0,0,1,47.065,64.911Z" transform="translate(-36.159 -49.917)" fill="#00db98"/>
        <path id="Path_171" data-name="Path 171" d="M399.589,67.639a4.089,4.089,0,1,0-4.089-4.089A4.089,4.089,0,0,0,399.589,67.639Zm0-5.452a1.363,1.363,0,1,1-1.363,1.363A1.363,1.363,0,0,1,399.589,62.186Z" transform="translate(-331.433 -49.918)" fill="#00db98"/>
        <path id="Path_172" data-name="Path 172" d="M81.652,79.765h-.228V78.4A4.089,4.089,0,0,0,78.7,74.563V72.95a4.089,4.089,0,0,0-4.089-4.089V66.134h1.363a4.089,4.089,0,1,0,0-8.179H74.609V53.866h1.363a4.089,4.089,0,1,0,0-8.179H74.609V41.6h1.363a4.089,4.089,0,1,0,0-8.179H74.609v-4.8a12.247,12.247,0,0,0,0-23.1V4.794A4.11,4.11,0,0,0,70.52.705a4.089,4.089,0,0,0-4.089,4.089V5.51a12.287,12.287,0,0,0-8.1,10.189H55.061L51.326,6.984a1.363,1.363,0,0,0-2.506,0l-6.926,16.16L34.969,6.984a1.363,1.363,0,0,0-2.506,0L28.728,15.7H25.457a12.287,12.287,0,0,0-8.1-10.189V4.794a3.991,3.991,0,0,0-1.191-2.873A4.012,4.012,0,0,0,13.269.7,4.089,4.089,0,0,0,9.18,4.794V5.51a12.247,12.247,0,0,0,0,23.1v4.8H7.817a4.089,4.089,0,1,0,0,8.179H9.18v4.089H7.817a4.089,4.089,0,1,0,0,8.179H9.18v4.089H7.817a4.089,4.089,0,1,0,0,8.179H9.18V68.86a4.089,4.089,0,0,0-4.089,4.089v1.614A4.089,4.089,0,0,0,2.364,78.4v1.363a1.363,1.363,0,1,0,0,2.726H81.652a1.363,1.363,0,1,0,0-2.725Zm-5.68-6.816v1.363h-10.9V72.949a1.363,1.363,0,0,1,1.363-1.363h8.179A1.363,1.363,0,0,1,75.972,72.949ZM69.157,68.86V66.134h2.726V68.86H69.157Zm6.816-8.179a1.363,1.363,0,0,1,0,2.726h-10.9a1.363,1.363,0,1,1,0-2.726Zm-6.816-2.726V53.866h2.726v4.089Zm6.816-9.542a1.363,1.363,0,0,1,0,2.726h-10.9a1.363,1.363,0,1,1,0-2.726Zm-6.816-2.726V41.6h2.726v4.089Zm6.816-9.542a1.363,1.363,0,1,1,0,2.726h-10.9a1.363,1.363,0,1,1,0-2.726Zm-6.816-2.726V29.25a11.58,11.58,0,0,0,2.726,0v4.17Zm0-28.625A1.363,1.363,0,0,1,70.52,3.431a1.333,1.333,0,0,1,.972.417,1.316,1.316,0,0,1,.391.946v.08a11.58,11.58,0,0,0-2.726,0ZM70.52,7.52a9.542,9.542,0,1,1-9.542,9.542A9.542,9.542,0,0,1,70.52,7.52ZM11.906,4.794a1.363,1.363,0,0,1,1.363-1.363,1.328,1.328,0,0,1,.971.417,1.3,1.3,0,0,1,.393.946v.08a11.58,11.58,0,0,0-2.726,0v-.08ZM3.728,17.062A9.542,9.542,0,1,1,13.269,26.6,9.542,9.542,0,0,1,3.728,17.062Zm10.9,12.188v4.17H11.906V29.25A11.58,11.58,0,0,0,14.632,29.25ZM7.817,38.872a1.363,1.363,0,0,1,0-2.726h10.9a1.363,1.363,0,0,1,0,2.726ZM14.632,41.6v4.089H11.906V41.6ZM7.817,51.14a1.363,1.363,0,0,1,0-2.726h10.9a1.363,1.363,0,1,1,0,2.726Zm6.816,2.726v4.089H11.906V53.866ZM7.817,63.408a1.363,1.363,0,0,1,0-2.726h10.9a1.363,1.363,0,1,1,0,2.726Zm6.816,2.726V68.86H11.906V66.134ZM7.817,72.949A1.363,1.363,0,0,1,9.18,71.586h8.179a1.363,1.363,0,0,1,1.363,1.363v1.363H7.817Zm13.631,6.816H5.091V78.4a1.363,1.363,0,0,1,1.363-1.363H20.085A1.363,1.363,0,0,1,21.448,78.4v1.363ZM59.615,78.4v1.363H24.174V78.4a4.089,4.089,0,0,0-2.726-3.839V72.949a4.089,4.089,0,0,0-4.089-4.089V66.134h1.363a4.089,4.089,0,1,0,0-8.179H17.359V53.866h1.363a4.089,4.089,0,1,0,0-8.179H17.359V41.6h1.363a4.089,4.089,0,1,0,0-8.179H17.359v-4.8a12.287,12.287,0,0,0,8.1-10.189h4.17a1.363,1.363,0,0,0,1.253-.826l2.837-6.618,6.926,16.16a1.363,1.363,0,0,0,2.506,0l6.926-16.16L52.91,17.6a1.363,1.363,0,0,0,1.253.826h4.17a12.287,12.287,0,0,0,8.1,10.189v4.8H65.067a4.089,4.089,0,1,0,0,8.179H66.43v4.089H65.067a4.089,4.089,0,1,0,0,8.179H66.43v4.089H65.067a4.089,4.089,0,1,0,0,8.179H66.43V68.86a4.089,4.089,0,0,0-4.089,4.089v1.614A4.089,4.089,0,0,0,59.615,78.4ZM78.7,79.765H62.341V78.4A1.363,1.363,0,0,1,63.7,77.039H77.335A1.363,1.363,0,0,1,78.7,78.4v1.363Z" transform="translate(-1 -0.705)" fill="#00db98"/>
      </g>
    </g>
  </g>
</svg>
