<svg xmlns="http://www.w3.org/2000/svg" width="77.792" height="77.792" viewBox="0 0 77.792 77.792">
  <g id="Page-1" transform="translate(0)">
    <g id="_050---Language-Tutor" data-name="050---Language-Tutor" transform="translate(0 0)">
      <path id="Shape" d="M73.9,0h-38.9a3.89,3.89,0,0,0-3.89,3.89V27.848A16.832,16.832,0,0,0,6.483,42.786V59.77A6.494,6.494,0,0,0,1.3,66.123a6.328,6.328,0,0,0,.139,1.267A5.159,5.159,0,0,0,0,70.971V73.9a3.89,3.89,0,0,0,3.89,3.89h38.9a3.89,3.89,0,0,0,3.89-3.89V70.971a5.158,5.158,0,0,0-1.435-3.58,6.331,6.331,0,0,0,.139-1.268,6.494,6.494,0,0,0-5.186-6.353V42.786A16.765,16.765,0,0,0,38.9,36.3h5.186v5.186a2.592,2.592,0,0,0,4.32,1.933L56.251,36.3H73.9a3.89,3.89,0,0,0,3.89-3.89V3.89A3.89,3.89,0,0,0,73.9,0ZM23.338,28.524A14.279,14.279,0,0,1,37.6,42.786v5.1c-8.333-.841-13.112-8.3-13.161-8.374a1.3,1.3,0,0,0-2.2,0c-.049.078-4.8,7.533-13.16,8.373v-5.1A14.279,14.279,0,0,1,23.338,28.524ZM18.151,63.756a8.662,8.662,0,0,0,5.186,2.367A9.132,9.132,0,0,0,28.524,63.7v2.2c-.241.6-1.39,2.813-5.186,2.813s-4.955-2.238-5.186-2.81Zm5.186-.226c-3.094,0-9.951-7.415-10.022-12.978,0-.235-.008-.558-.021-.919A22.372,22.372,0,0,0,23.338,42.4,22.341,22.341,0,0,0,33.5,49.668c-.012.344-.019.648-.019.867-.08,5.443-7.1,13-10.139,13ZM6.528,62.458A1.278,1.278,0,0,0,7.779,63.53a1.3,1.3,0,0,0,1.3-1.3V50.5c.561-.048,1.111-.114,1.643-.207v.28c.043,3.078,2.117,7.288,4.84,10.555v3.8l-10.842.88a5.323,5.323,0,0,0-.81.15,3.877,3.877,0,0,1,2.622-3.5ZM44.082,73.9a1.3,1.3,0,0,1-1.3,1.3H3.89a1.3,1.3,0,0,1-1.3-1.3V70.971a2.576,2.576,0,0,1,2.347-2.58l11.106-.908c.773,1.429,2.745,3.826,7.292,3.826s6.519-2.4,7.292-3.82l11.094.9a2.58,2.58,0,0,1,2.358,2.581Zm-1.313-7.944a5.316,5.316,0,0,0-.822-.153l-10.83-.879V61.182c2.723-3.1,4.9-7.141,4.953-10.632V50.3c.5.084,1,.147,1.526.191V62.234a1.3,1.3,0,0,0,1.3,1.3,1.278,1.278,0,0,0,1.251-1.072A3.878,3.878,0,0,1,42.769,65.959ZM75.2,32.413a1.3,1.3,0,0,1-1.3,1.3H53.158a1.286,1.286,0,0,0-.59,2.434l-5.893,5.346V36.3h1.3a1.3,1.3,0,0,0,0-2.593H37.518a16.961,16.961,0,0,0-3.808-4.181V3.89a1.3,1.3,0,0,1,1.3-1.3H73.9a1.3,1.3,0,0,1,1.3,1.3Z" transform="translate(0 0)" fill="#00db98"/>
      <path id="Shape-2" data-name="Shape" d="M30.525,17.376l1-3h3.319l1,3a1.3,1.3,0,1,0,2.463-.819L34.42,4.888a1.3,1.3,0,0,0-2.463,0l-3.89,11.669a1.3,1.3,0,0,0,2.463.819Zm3.455-5.6h-1.59L33.186,9.4Z" transform="translate(8.303 1.185)" fill="#00db98"/>
      <path id="Shape-3" data-name="Shape" d="M57.669,5.3h-3.89a1.3,1.3,0,0,0-2.593,0H47.3a1.3,1.3,0,1,0,0,2.593h.14A13.156,13.156,0,0,0,50.582,14.2a15.833,15.833,0,0,1-2.568,1.6,1.3,1.3,0,1,0,1.159,2.321,18.282,18.282,0,0,0,3.31-2.12,18.281,18.281,0,0,0,3.31,2.126,1.3,1.3,0,0,0,1.159-2.321,15.833,15.833,0,0,1-2.568-1.6A13.144,13.144,0,0,0,57.529,7.89h.14a1.3,1.3,0,0,0,0-2.593Zm-5.186,7.143a10.6,10.6,0,0,1-2.4-4.55h4.8A10.606,10.606,0,0,1,52.483,12.439Z" transform="translate(13.641 1.186)" fill="#00db98"/>
      <path id="Shape-4" data-name="Shape" d="M44.4,6.376A1.3,1.3,0,0,0,42.566,8.21l.38.38H38.3a1.3,1.3,0,0,0,0,2.593h4.649l-.38.38A1.3,1.3,0,1,0,44.4,13.4L46.992,10.8a1.3,1.3,0,0,0,0-1.833Z" transform="translate(10.972 1.783)" fill="#00db98"/>
      <path id="Shape-5" data-name="Shape" d="M47.151,17H30.3a1.3,1.3,0,0,0,0,2.593H47.151a1.3,1.3,0,0,0,0-2.593Z" transform="translate(8.599 5.041)" fill="#00db98"/>
      <path id="Shape-6" data-name="Shape" d="M56.372,17H47.3a1.3,1.3,0,1,0,0,2.593h9.076a1.3,1.3,0,0,0,0-2.593Z" transform="translate(13.641 5.041)" fill="#00db98"/>
      <path id="Shape-7" data-name="Shape" d="M41.372,21H32.3a1.3,1.3,0,0,0,0,2.593h9.076a1.3,1.3,0,0,0,0-2.593Z" transform="translate(9.193 6.227)" fill="#00db98"/>
    </g>
  </g>
</svg>
