<svg id="Page-5" xmlns="http://www.w3.org/2000/svg" width="70.23" height="81.034" viewBox="0 0 70.23 81.034">
  <g id="_045---Rating" data-name="045---Rating" transform="translate(0 0)">
    <path id="Shape" d="M63.477,13.506h-12.4a16.186,16.186,0,0,0-31.926,0H6.753A6.761,6.761,0,0,0,0,20.259V74.281a6.761,6.761,0,0,0,6.753,6.753H63.477a6.761,6.761,0,0,0,6.753-6.753V20.259A6.761,6.761,0,0,0,63.477,13.506ZM35.115,2.7a13.485,13.485,0,0,1,11.34,20.814,13.4,13.4,0,0,0-6.084-3.854,8.1,8.1,0,1,0-10.511,0,13.4,13.4,0,0,0-6.084,3.854A13.485,13.485,0,0,1,35.115,2.7Zm-5.4,10.8a5.4,5.4,0,1,1,5.4,5.4A5.4,5.4,0,0,1,29.713,13.506Zm15.02,12.168a13.469,13.469,0,0,1-19.235,0,11.779,11.779,0,0,1,9.617-4.064A11.779,11.779,0,0,1,44.732,25.673Zm22.8,48.608a4.056,4.056,0,0,1-4.052,4.052H6.753A4.056,4.056,0,0,1,2.7,74.281V20.259a4.056,4.056,0,0,1,4.052-4.052H18.908a16.13,16.13,0,0,0,3.684,10.274l.018.024a16.188,16.188,0,0,0,25.01,0l.018-.024a16.13,16.13,0,0,0,3.684-10.274H63.477a4.056,4.056,0,0,1,4.052,4.052Z" transform="translate(0 0)" fill="#00db98"/>
    <path id="Shape-2" data-name="Shape" d="M23.284,36.425,22.6,40.639a1.351,1.351,0,0,0,1.986,1.4l3.52-1.945,3.52,1.945a1.351,1.351,0,0,0,1.986-1.4l-.687-4.214,2.9-2.973a1.351,1.351,0,0,0-.763-2.278l-3.954-.6-1.78-3.793a1.351,1.351,0,0,0-2.445,0L25.1,30.57l-3.954.6a1.351,1.351,0,0,0-.763,2.278Zm2.937-3.294a1.349,1.349,0,0,0,1.019-.761l.864-1.841.864,1.841a1.349,1.349,0,0,0,1.019.761l2.067.316-1.54,1.579a1.35,1.35,0,0,0-.366,1.161l.35,2.142-1.74-.961a1.349,1.349,0,0,0-1.307,0l-1.74.961.35-2.142a1.35,1.35,0,0,0-.366-1.161l-1.54-1.579Z" transform="translate(7.012 9.115)" fill="#00db98"/>
    <path id="Shape-3" data-name="Shape" d="M9.284,36.425,8.6,40.639a1.351,1.351,0,0,0,1.986,1.4l3.52-1.945,3.52,1.945a1.351,1.351,0,0,0,1.986-1.4l-.687-4.214,2.9-2.973a1.351,1.351,0,0,0-.763-2.278l-3.954-.6-1.78-3.793a1.351,1.351,0,0,0-2.445,0L11.1,30.57l-3.954.6a1.351,1.351,0,0,0-.763,2.278Zm2.937-3.294a1.349,1.349,0,0,0,1.019-.761l.864-1.841.864,1.841a1.349,1.349,0,0,0,1.019.761l2.067.316-1.54,1.579a1.35,1.35,0,0,0-.366,1.161l.35,2.142-1.74-.961a1.349,1.349,0,0,0-1.307,0l-1.74.961.35-2.142a1.35,1.35,0,0,0-.366-1.161l-1.54-1.579Z" transform="translate(2.104 9.115)" fill="#00db98"/>
    <path id="Shape-4" data-name="Shape" d="M37.284,36.425,36.6,40.639a1.351,1.351,0,0,0,1.986,1.4l3.52-1.945,3.52,1.945a1.351,1.351,0,0,0,1.987-1.4l-.687-4.214,2.9-2.973a1.351,1.351,0,0,0-.762-2.278l-3.954-.6-1.78-3.793a1.351,1.351,0,0,0-2.445,0L39.1,30.57l-3.954.6a1.351,1.351,0,0,0-.763,2.278Zm2.937-3.294a1.349,1.349,0,0,0,1.019-.761l.864-1.841.864,1.841a1.349,1.349,0,0,0,1.019.761l2.067.316-1.54,1.579a1.35,1.35,0,0,0-.366,1.161l.349,2.142-1.739-.961a1.354,1.354,0,0,0-1.307,0l-1.74.961.35-2.142a1.35,1.35,0,0,0-.366-1.161l-1.54-1.579Z" transform="translate(11.92 9.115)" fill="#00db98"/>
    <path id="Shape-5" data-name="Shape" d="M7.351,43.7H23.557a1.351,1.351,0,1,0,0-2.7H7.351a1.351,1.351,0,1,0,0,2.7Z" transform="translate(2.103 14.373)" fill="#00db98"/>
    <path id="Shape-6" data-name="Shape" d="M53.063,41H23.351a1.351,1.351,0,1,0,0,2.7H53.063a1.351,1.351,0,1,0,0-2.7Z" transform="translate(7.713 14.373)" fill="#00db98"/>
    <path id="Shape-7" data-name="Shape" d="M58.672,45H7.351a1.351,1.351,0,1,0,0,2.7H58.672a1.351,1.351,0,0,0,0-2.7Z" transform="translate(2.103 15.776)" fill="#00db98"/>
    <path id="Shape-8" data-name="Shape" d="M7.351,51.7H39.764a1.351,1.351,0,0,0,0-2.7H7.351a1.351,1.351,0,0,0,0,2.7Z" transform="translate(2.103 17.178)" fill="#00db98"/>
    <path id="Shape-9" data-name="Shape" d="M48.856,49H35.351a1.351,1.351,0,0,0,0,2.7H48.856a1.351,1.351,0,0,0,0-2.7Z" transform="translate(11.919 17.178)" fill="#00db98"/>
    <path id="Shape-10" data-name="Shape" d="M58.672,53H7.351a1.351,1.351,0,0,0,0,2.7H58.672a1.351,1.351,0,0,0,0-2.7Z" transform="translate(2.103 18.58)" fill="#00db98"/>
  </g>
</svg>
