<svg id="population" xmlns="http://www.w3.org/2000/svg" width="78.346" height="78.346" viewBox="0 0 78.346 78.346">
  <g id="Group_572" data-name="Group 572" transform="translate(62.677)">
    <g id="Group_571" data-name="Group 571">
      <path id="Path_165" data-name="Path 165" d="M395.9,8.467a5.171,5.171,0,0,0,1.161-3.244,5.223,5.223,0,0,0-10.446,0,5.171,5.171,0,0,0,1.161,3.244,6.522,6.522,0,0,0-3.772,5.9v2.612a1.3,1.3,0,0,0,1.306,1.306h13.058a1.3,1.3,0,0,0,1.306-1.306V14.363A6.522,6.522,0,0,0,395.9,8.467Zm-4.062-5.855a2.612,2.612,0,1,1-2.612,2.612A2.614,2.614,0,0,1,391.835,2.612Zm5.223,13.058H386.612V14.363a3.922,3.922,0,0,1,3.917-3.917h2.612a3.922,3.922,0,0,1,3.917,3.917Z" transform="translate(-384)" fill="#00db98"/>
    </g>
  </g>
  <g id="Group_574" data-name="Group 574" transform="translate(31.338 7.835)">
    <g id="Group_573" data-name="Group 573">
      <path id="Path_166" data-name="Path 166" d="M224.789,79.97a5.171,5.171,0,0,0,1.161-3.244,5.214,5.214,0,0,0-8.1-4.352,6.525,6.525,0,0,0-3.507-4.156,5.171,5.171,0,0,0,1.161-3.244,5.214,5.214,0,0,0-8.1-4.352,6.525,6.525,0,0,0-3.507-4.156,5.172,5.172,0,0,0,1.161-3.244,5.223,5.223,0,1,0-10.446,0,5.172,5.172,0,0,0,1.161,3.244,6.522,6.522,0,0,0-3.772,5.9v2.612a1.3,1.3,0,0,0,1.306,1.306h11.937a5.164,5.164,0,0,0,.975,1.938,6.522,6.522,0,0,0-3.772,5.9v2.612a1.3,1.3,0,0,0,1.306,1.306h11.937a5.163,5.163,0,0,0,.975,1.938,6.522,6.522,0,0,0-3.772,5.9v2.612a1.3,1.3,0,0,0,1.306,1.306h13.058a1.3,1.3,0,0,0,1.306-1.306V85.867A6.522,6.522,0,0,0,224.789,79.97ZM199.835,50.612a2.612,2.612,0,1,1-2.612,2.612A2.614,2.614,0,0,1,199.835,50.612Zm5.223,13.058H194.612V62.363a3.922,3.922,0,0,1,3.917-3.917h2.612a3.922,3.922,0,0,1,3.917,3.917Zm5.223-1.306a2.612,2.612,0,1,1-2.612,2.612A2.614,2.614,0,0,1,210.281,62.363ZM215.5,75.421H205.058V74.115a3.922,3.922,0,0,1,3.917-3.917h2.612a3.922,3.922,0,0,1,3.917,3.917Zm5.223-1.306a2.612,2.612,0,1,1-2.612,2.612A2.614,2.614,0,0,1,220.727,74.115Zm5.223,13.058H215.5V85.867a3.922,3.922,0,0,1,3.917-3.917h2.612a3.922,3.922,0,0,1,3.917,3.917Z" transform="translate(-192 -48)" fill="#00db98"/>
    </g>
  </g>
  <g id="Group_576" data-name="Group 576" transform="translate(56.529 17.354)">
    <g id="Group_575" data-name="Group 575">
      <rect id="Rectangle_175" data-name="Rectangle 175" width="3.693" height="2.612" transform="translate(0 2.611) rotate(-45)" fill="#00db98"/>
    </g>
  </g>
  <g id="Group_578" data-name="Group 578" transform="translate(68.014 26.272)">
    <g id="Group_577" data-name="Group 577" transform="translate(0 0)">
      <rect id="Rectangle_176" data-name="Rectangle 176" width="2" height="4" transform="translate(-0.014 0.449)" fill="#00db98"/>
    </g>
  </g>
  <g id="Group_580" data-name="Group 580" transform="translate(47.822 8.206)">
    <g id="Group_579" data-name="Group 579" transform="translate(0 0)">
      <rect id="Rectangle_177" data-name="Rectangle 177" width="4" height="3" transform="translate(0.178 -0.484)" fill="#00db98"/>
    </g>
  </g>
  <g id="Group_582" data-name="Group 582" transform="translate(35.637 38.25)">
    <g id="Group_581" data-name="Group 581" transform="translate(0 0)">
      <rect id="Rectangle_178" data-name="Rectangle 178" width="3.693" height="2.612" transform="translate(0 2.611) rotate(-45)" fill="#00db98"/>
    </g>
  </g>
  <g id="Group_584" data-name="Group 584" transform="translate(46.76 47.527)">
    <g id="Group_583" data-name="Group 583" transform="translate(0 0)">
      <rect id="Rectangle_179" data-name="Rectangle 179" width="3" height="3" transform="translate(0.24 0.195)" fill="#00db98"/>
    </g>
  </g>
  <g id="Group_586" data-name="Group 586" transform="translate(27.631 28.398)">
    <g id="Group_585" data-name="Group 585" transform="translate(0 0)">
      <rect id="Rectangle_180" data-name="Rectangle 180" width="3" height="3" transform="translate(0.369 0.324)" fill="#00db98"/>
    </g>
  </g>
  <g id="Group_588" data-name="Group 588" transform="translate(0 11.752)">
    <g id="Group_587" data-name="Group 587">
      <path id="Path_167" data-name="Path 167" d="M53.681,128.78a5.172,5.172,0,0,0,1.161-3.244,5.193,5.193,0,0,0-7.891-4.467,6.507,6.507,0,0,0-3.718-5.347,5.165,5.165,0,0,0,1.162-3.244,5.214,5.214,0,0,0-8.1-4.352,6.525,6.525,0,0,0-3.507-4.156,5.171,5.171,0,0,0,1.161-3.244,5.214,5.214,0,0,0-8.1-4.352,6.525,6.525,0,0,0-3.507-4.156A5.171,5.171,0,0,0,23.5,88.975a5.214,5.214,0,0,0-8.1-4.352A6.525,6.525,0,0,0,11.9,80.467a5.171,5.171,0,0,0,1.161-3.244,5.223,5.223,0,1,0-10.446,0,5.171,5.171,0,0,0,1.161,3.244A6.522,6.522,0,0,0,0,86.363v2.612a1.3,1.3,0,0,0,1.306,1.306H13.243a5.164,5.164,0,0,0,.975,1.938,6.525,6.525,0,0,0-3.507,4.156,5.2,5.2,0,0,0-6.939,7.6A6.522,6.522,0,0,0,0,109.867v2.612a1.3,1.3,0,0,0,1.306,1.306H13.243a5.164,5.164,0,0,0,.975,1.938,6.546,6.546,0,0,0-3.14,3.14A5.171,5.171,0,0,0,7.835,117.7a5.228,5.228,0,0,0-5.223,5.223,5.172,5.172,0,0,0,1.161,3.244A6.522,6.522,0,0,0,0,132.065v2.612a1.3,1.3,0,0,0,1.306,1.306H14.363a1.3,1.3,0,0,0,1.306-1.306v-2.612a6.522,6.522,0,0,0-3.772-5.9,5.02,5.02,0,0,0,.435-.632H23.689a5.164,5.164,0,0,0,.975,1.938,6.522,6.522,0,0,0-3.772,5.9v2.612a1.3,1.3,0,0,0,1.306,1.306H35.256a1.3,1.3,0,0,0,1.306-1.306v-2.612a6.522,6.522,0,0,0-3.772-5.9,5.164,5.164,0,0,0,.975-1.938H44.4a5.172,5.172,0,0,0,1.161,3.244,6.522,6.522,0,0,0-3.772,5.9v2.612a1.3,1.3,0,0,0,1.306,1.306H56.148a1.3,1.3,0,0,0,1.306-1.306v-2.612A6.522,6.522,0,0,0,53.681,128.78ZM7.835,74.612a2.612,2.612,0,1,1-2.612,2.612A2.614,2.614,0,0,1,7.835,74.612Zm5.223,13.058H2.612V86.363a3.922,3.922,0,0,1,3.917-3.917H9.14a3.922,3.922,0,0,1,3.917,3.917ZM7.835,120.313a2.612,2.612,0,1,1-2.612,2.612A2.614,2.614,0,0,1,7.835,120.313Zm5.223,11.752v1.306H2.612v-1.306a3.922,3.922,0,0,1,3.917-3.917H9.14A3.922,3.922,0,0,1,13.058,132.065Zm26.115-22.2a2.612,2.612,0,1,1-2.612,2.612A2.614,2.614,0,0,1,39.173,109.867ZM28.727,98.115a2.612,2.612,0,1,1-2.612,2.612A2.614,2.614,0,0,1,28.727,98.115Zm-1.306,7.835h2.612a3.922,3.922,0,0,1,3.917,3.917v1.306H23.5v-1.306A3.922,3.922,0,0,1,27.421,105.95Zm-9.14-19.586a2.612,2.612,0,1,1-2.612,2.612A2.614,2.614,0,0,1,18.281,86.363ZM13.058,98.115A3.922,3.922,0,0,1,16.975,94.2h2.612A3.922,3.922,0,0,1,23.5,98.115v1.306H13.058Zm-5.223,0a2.612,2.612,0,1,1-2.612,2.612A2.614,2.614,0,0,1,7.835,98.115Zm5.223,13.058H2.612v-1.306a3.922,3.922,0,0,1,3.917-3.917H9.14a3.922,3.922,0,0,1,3.917,3.917Zm-1.161-7.2a5.164,5.164,0,0,0,.975-1.938H23.689a5.164,5.164,0,0,0,.975,1.938,6.525,6.525,0,0,0-3.507,4.156,5.186,5.186,0,0,0-5.753,0A6.525,6.525,0,0,0,11.9,103.97Zm9,8.508a2.612,2.612,0,1,1-2.612-2.612A2.614,2.614,0,0,1,20.892,112.479ZM23.5,122.925H13.058v-1.306a3.922,3.922,0,0,1,3.917-3.917h2.612a3.922,3.922,0,0,1,3.917,3.917ZM33.95,133.371v1.306H23.5v-1.306a3.922,3.922,0,0,1,3.917-3.917h2.612A3.922,3.922,0,0,1,33.95,133.371Zm-7.835-9.14a2.612,2.612,0,1,1,2.612,2.612A2.614,2.614,0,0,1,26.115,124.23Zm5.488-4.352a5.186,5.186,0,0,0-5.753,0,6.525,6.525,0,0,0-3.507-4.156,5.164,5.164,0,0,0,.975-1.938H34.135a5.164,5.164,0,0,0,.975,1.938A6.525,6.525,0,0,0,31.6,119.878ZM44.4,122.925H33.95v-1.306a3.922,3.922,0,0,1,3.917-3.917h2.612a3.922,3.922,0,0,1,3.917,3.917Zm5.223,0a2.612,2.612,0,1,1-2.612,2.612A2.614,2.614,0,0,1,49.619,122.925Zm5.223,13.058H44.4v-1.306a3.922,3.922,0,0,1,3.917-3.917h2.612a3.922,3.922,0,0,1,3.917,3.917Z" transform="translate(0 -72)" fill="#00db98"/>
    </g>
  </g>
</svg>
