<svg xmlns="http://www.w3.org/2000/svg" width="80.346" height="80.349" viewBox="0 0 80.346 80.349">
  <path id="radar" d="M69.55,12.727l2.79-2.79a1.386,1.386,0,0,0-1.961-1.961l-2.787,2.787A40.375,40.375,0,0,0,17.03,7.276a6.9,6.9,0,0,0-9.75,9.75,40.207,40.207,0,1,0,62.269-4.3ZM9.485,9.48a4.161,4.161,0,0,1,5.882,0,3.936,3.936,0,0,1,.291.356l.08.107A4.154,4.154,0,0,1,16.545,12a.024.024,0,0,0,0,.008,4.088,4.088,0,0,1,.012.7c0,.022,0,.043-.006.065a4.494,4.494,0,0,1-.1.638c-.012.05-.029.1-.044.148a4.194,4.194,0,0,1-.184.539c-.042.094-.1.184-.144.275a3.47,3.47,0,0,1-.71.991,3.858,3.858,0,0,1-.631.509c-.017.011-.035.018-.05.028a4.318,4.318,0,0,1-3.024.571l-.085-.017a4.54,4.54,0,0,1-.552-.157c-.111-.04-.222-.078-.329-.128-.079-.035-.153-.078-.229-.116a4.133,4.133,0,0,1-.521-.319l-.022-.017a3.7,3.7,0,0,1-.44-.355A4.165,4.165,0,0,1,9.485,9.48ZM66.634,66.63A37.438,37.438,0,0,1,9.494,18.682a6.809,6.809,0,0,0,.908.34c.053.015.105.033.158.047a6.745,6.745,0,0,0,.915.193c.055.007.111.01.166.017a7.026,7.026,0,0,0,.785.076,6.866,6.866,0,0,0,1.937-.308c.13-.037.259-.072.387-.116a6.84,6.84,0,0,0,.634-.262c.187-.087.367-.189.548-.293.154-.09.309-.175.456-.277a6.26,6.26,0,0,0,1.733-1.746c.089-.129.162-.263.241-.4a6.831,6.831,0,0,0,.34-.646c.082-.179.158-.356.223-.539s.107-.345.154-.52a6.936,6.936,0,0,0,.205-2.565c-.008-.076-.011-.151-.022-.227a6.859,6.859,0,0,0-.179-.85c-.022-.083-.047-.166-.073-.251a6.631,6.631,0,0,0-.318-.842.245.245,0,0,1-.008-.024A37.58,37.58,0,0,1,65.61,12.746L60.7,17.655A30.567,30.567,0,1,0,70.39,43.879a6.838,6.838,0,0,0,3.11-1.762,6.945,6.945,0,0,0,0-9.805,6.876,6.876,0,0,0-4.484-1.987A30.5,30.5,0,0,0,62.683,19.6l4.909-4.909A37.483,37.483,0,0,1,66.634,66.63ZM68.6,33.056a4.156,4.156,0,0,1,.815,8.233l-.4.04a4.243,4.243,0,0,1-1.792-.207c-.014,0-.028-.007-.042-.012a3.989,3.989,0,0,1-.724-.347c-.031-.019-.065-.031-.1-.05a4.015,4.015,0,0,1-.7-.557A4.132,4.132,0,0,1,68.166,33.1l.4-.042C68.576,33.059,68.586,33.056,68.6,33.056Zm-2.411-2.324a6.861,6.861,0,0,0-1.113.539c-.075.043-.155.073-.229.119a6.907,6.907,0,0,0-1.151,10.726,6.772,6.772,0,0,0,.979.8c.135.093.276.168.415.25a6.738,6.738,0,0,0,.642.337c.189.086.377.159.571.227.169.058.34.107.513.151a6.864,6.864,0,0,0,.722.161c.021,0,.04.011.06.014a27.75,27.75,0,1,1-8.854-24.441L52.857,25.5a19.424,19.424,0,1,0,1.961,1.961L60.7,21.579a27.7,27.7,0,0,1,5.529,9.133C66.211,30.717,66.2,30.727,66.184,30.732Zm-27.005,10.4a1.386,1.386,0,0,0,1.961,0L52.859,29.418A16.629,16.629,0,1,1,50.9,27.457L39.179,39.176A1.385,1.385,0,0,0,39.179,41.137Z" transform="translate(-0.002 0)" fill="#00db98"/>
</svg>
